<?xml version="1.0" encoding="utf-8"?>
<!-- Generator: Adobe Illustrator 21.1.0, SVG Export Plug-In . SVG Version: 6.00 Build 0)  -->
<svg version="1.1" id="Слой_1" xmlns="http://www.w3.org/2000/svg" xmlns:xlink="http://www.w3.org/1999/xlink" x="0px" y="0px"
	 viewBox="0 0 657 256" style="enable-background:new 0 0 657 256;" xml:space="preserve">
<style type="text/css">
	.st0{fill:#F3DF49;}
	.st1{fill:#2E3856;}
</style>
<path class="st0" d="M0,0h256v256H0V0z"/>
<path class="st1" d="M175.7,196.1l33,18.4l-10.1,23.8H190l-7.2-10.9l-53.1-14.2L175.7,196.1z M134.1,141.3l37.5,29.7v19.3
	l-50.3,19.5l-26.2,1.3l-20.2-27.1L94,157.8L134.1,141.3z M190,132.5l46.8,28.8l-5.8,35.3l-18,13.3l-34.6-19.6V171l-6.5-37.4
	L190,132.5z M165,134.8l5.9,27.8l-28.7-23.9L165,134.8z"/>
<path class="st0" d="M332.2,218.5c-11.6,0-20.7-3.5-27.5-10.5c-6.8-7-10.2-16.8-10.2-29.5c0-12.2,3.4-21.9,10.2-29.2
	c6.8-7.3,16-10.9,27.6-10.9c3.1,0,5.8,0.2,8.3,0.5c2.4,0.3,4.8,0.8,7,1.4c1.8,0.5,3.7,1.2,5.7,2.1c2.1,0.9,3.7,1.7,5,2.3v18.4h-2
	c-0.9-0.8-2.1-1.8-3.5-3c-1.4-1.2-3-2.3-4.8-3.4c-1.8-1.1-3.8-2-6-2.8c-2.1-0.8-4.4-1.2-6.7-1.2c-2.8,0-5.4,0.4-7.7,1.3
	c-2.3,0.9-4.5,2.4-6.6,4.6c-1.9,2-3.5,4.6-4.8,8c-1.2,3.3-1.8,7.3-1.8,11.9c0,4.8,0.6,8.8,1.9,12.1c1.3,3.2,3,5.9,5,7.9
	c2,1.9,4.2,3.3,6.7,4.2c2.5,0.9,5,1.3,7.4,1.3c2.6,0,5-0.4,7.3-1.2c2.3-0.9,4.3-1.8,5.8-2.8c1.7-1.1,3.2-2.2,4.6-3.3
	c1.3-1.1,2.4-2.1,3.4-2.9h1.8v18.1c-1.4,0.7-3.1,1.4-4.9,2.3c-1.9,0.8-3.8,1.5-5.7,2.1c-2.4,0.7-4.7,1.3-6.8,1.7
	C338.8,218.3,335.9,218.5,332.2,218.5z M416.7,201.8v-12.1c-3.1,0.3-5.6,0.6-7.5,0.8c-1.9,0.2-3.8,0.6-5.6,1.3
	c-1.6,0.6-2.8,1.4-3.7,2.5c-0.9,1.1-1.3,2.6-1.3,4.5c0,2.7,0.7,4.6,2.2,5.6c1.5,1,3.7,1.5,6.5,1.5c1.6,0,3.2-0.4,4.9-1.1
	C413.8,204.2,415.3,203.1,416.7,201.8z M416.7,210.8c-1.2,1-2.4,2-3.4,2.8c-1,0.8-2.3,1.7-3.9,2.5c-1.6,0.8-3.2,1.4-4.8,1.8
	c-1.5,0.4-3.7,0.6-6.4,0.6c-5.1,0-9.4-1.7-12.8-5.2c-3.4-3.5-5.1-7.8-5.1-13c0-4.3,0.9-7.8,2.6-10.5c1.7-2.7,4.2-4.8,7.5-6.3
	c3.3-1.6,7.2-2.7,11.7-3.3c4.6-0.6,9.5-1.1,14.7-1.4v-0.3c0-3.2-1.2-5.4-3.6-6.6c-2.3-1.2-5.9-1.9-10.6-1.9c-2.1,0-4.6,0.4-7.5,1.2
	c-2.9,0.8-5.7,1.7-8.4,3h-1.6v-14c1.8-0.5,4.7-1.1,8.7-1.8c4-0.7,8-1.1,12.1-1.1c10,0,17.3,1.7,21.8,5c4.6,3.3,6.9,8.4,6.9,15.2V217
	h-18V210.8z M503,176h-1.5c-0.7-0.2-1.7-0.4-3-0.5c-1.3-0.1-2.8-0.2-4.3-0.2c-1.9,0-3.9,0.3-6,0.8c-2.1,0.6-4.1,1.2-6.1,2V217H464
	v-58.1h18.1v8.3c0.8-0.8,2-1.7,3.4-2.8c1.5-1.2,2.8-2.1,4-2.8c1.3-0.8,2.8-1.5,4.6-2c1.8-0.6,3.4-0.9,5-0.9c0.6,0,1.2,0,2,0.1
	c0.7,0,1.4,0.1,2,0.2V176z M578.7,217h-18.1v-6.1c-1.2,1-2.5,2-4,3.1c-1.5,1.1-2.8,1.9-3.9,2.5c-1.4,0.7-2.9,1.2-4.3,1.6
	c-1.4,0.3-3.1,0.5-5.1,0.5c-6.6,0-11.9-2.7-15.7-8.2c-3.9-5.5-5.8-12.8-5.8-22c0-5.1,0.7-9.5,2-13.2c1.3-3.7,3.1-7,5.4-9.7
	c2.1-2.5,4.7-4.5,7.7-6c3-1.5,6.2-2.2,9.5-2.2c3,0,5.5,0.3,7.5,1c2,0.6,4.2,1.6,6.8,2.9v-24.7h18.1V217z M560.6,201v-28.5
	c-0.9-0.4-2.1-0.8-3.5-1.1c-1.4-0.3-2.7-0.5-3.7-0.5c-4.3,0-7.6,1.5-9.8,4.6c-2.2,3-3.3,7.3-3.3,12.7c0,5.7,0.9,9.9,2.6,12.4
	c1.8,2.6,4.6,3.8,8.5,3.8c1.6,0,3.2-0.3,4.8-0.9C557.8,202.9,559.2,202,560.6,201z M626.2,218.6c-4.3,0-8.3-0.5-12.2-1.4
	c-3.8-0.9-6.9-2-9.4-3.3v-15.3h1.5c0.9,0.7,1.8,1.4,3,2.2c1.1,0.8,2.6,1.6,4.6,2.5c1.7,0.8,3.6,1.5,5.7,2.1c2.1,0.6,4.5,0.8,6.9,0.8
	c2.6,0,4.8-0.4,6.7-1.2c2-0.8,3-2.1,3-3.8c0-1.3-0.4-2.4-1.3-3.1c-0.9-0.7-2.6-1.3-5.2-2c-1.4-0.3-3.1-0.7-5.2-1.1
	c-2.1-0.4-4-0.9-5.6-1.4c-4.6-1.4-8-3.5-10.3-6.3c-2.3-2.8-3.4-6.5-3.4-11c0-2.6,0.6-5,1.8-7.3c1.2-2.3,3-4.4,5.3-6.2
	c2.3-1.8,5.2-3.2,8.5-4.2c3.4-1,7.3-1.6,11.5-1.6c4.1,0,7.8,0.4,11.2,1.2c3.4,0.8,6.3,1.8,8.6,2.9v14.7h-1.4c-0.6-0.5-1.6-1.1-3-1.9
	c-1.3-0.8-2.7-1.5-3.9-2.1c-1.5-0.7-3.2-1.3-5.1-1.7c-1.9-0.4-3.8-0.7-5.7-0.7c-2.6,0-4.8,0.4-6.7,1.3c-1.8,0.9-2.7,2.1-2.7,3.6
	c0,1.3,0.4,2.3,1.3,3.1s2.8,1.5,5.8,2.2c1.6,0.4,3.3,0.8,5.3,1.1c2,0.3,4,0.8,5.8,1.4c4.2,1.3,7.3,3.3,9.5,6c2.2,2.6,3.3,6,3.3,10.4
	c0,2.7-0.6,5.3-1.9,7.8c-1.3,2.5-3.1,4.5-5.4,6.2c-2.5,1.8-5.4,3.2-8.8,4.2C634.9,218.1,630.9,218.6,626.2,218.6z"/>
<path class="st0" d="M296,58.8h21.8l8.4,32.7l8.4-32.7h21.8v53.7h-13.6V71.6l-10.5,40.9H320l-10.4-40.9v40.9H296V58.8z M415.2,96.8
	h-29.9c0.3,2.4,0.9,4.2,1.9,5.3c1.4,1.7,3.3,2.5,5.6,2.5c1.5,0,2.9-0.4,4.2-1.1c0.8-0.5,1.7-1.3,2.6-2.5l14.7,1.4
	c-2.2,3.9-5,6.7-8.1,8.4c-3.2,1.7-7.7,2.5-13.7,2.5c-5.2,0-9.2-0.7-12.2-2.2c-3-1.5-5.4-3.8-7.3-6.9c-1.9-3.2-2.9-6.9-2.9-11.2
	c0-6.1,1.9-11,5.8-14.8c3.9-3.8,9.3-5.6,16.1-5.6c5.6,0,10,0.8,13.2,2.5c3.2,1.7,5.7,4.1,7.4,7.3c1.7,3.2,2.5,7.4,2.5,12.5V96.8z
	 M400,89.6c-0.3-2.9-1.1-4.9-2.3-6.2c-1.3-1.2-2.9-1.9-5-1.9c-2.4,0-4.3,0.9-5.7,2.8c-0.9,1.2-1.5,2.9-1.7,5.2H400z M428.2,73.6
	h13.9v5.7c2-2.4,4-4.1,6.1-5.1c2-1,4.5-1.5,7.4-1.5c3.1,0,5.6,0.5,7.4,1.6s3.3,2.7,4.4,4.9c2.3-2.5,4.5-4.3,6.4-5.2
	c1.9-0.9,4.3-1.4,7.1-1.4c4.2,0,7.4,1.2,9.8,3.7c2.3,2.5,3.5,6.4,3.5,11.6v24.4h-14.9V90.3c0-1.8-0.3-3.1-1-3.9c-1-1.3-2.2-2-3.7-2
	c-1.8,0-3.2,0.6-4.2,1.9c-1.1,1.3-1.6,3.3-1.6,6.1v20.1h-14.9V91.1c0-1.7-0.1-2.9-0.3-3.5c-0.3-1-0.9-1.8-1.7-2.4
	c-0.8-0.6-1.7-0.9-2.8-0.9c-1.7,0-3.1,0.6-4.2,1.9c-1.1,1.3-1.7,3.4-1.7,6.4v19.8h-14.9V73.6z M507.4,93.2c0-5.9,2-10.8,6-14.7
	c4-3.8,9.4-5.8,16.2-5.8c7.8,0,13.7,2.3,17.7,6.8c3.2,3.6,4.8,8.1,4.8,13.4c0,6-2,10.9-6,14.7c-4,3.8-9.5,5.7-16.5,5.7
	c-6.3,0-11.3-1.6-15.2-4.8C509.7,104.7,507.4,99.5,507.4,93.2z M522.3,93.1c0,3.5,0.7,6,2.1,7.7c1.4,1.7,3.2,2.5,5.3,2.5
	c2.1,0,3.9-0.8,5.3-2.5c1.4-1.6,2.1-4.3,2.1-7.9c0-3.4-0.7-5.9-2.1-7.5c-1.4-1.6-3.1-2.5-5.2-2.5c-2.2,0-4,0.8-5.4,2.5
	S522.3,89.7,522.3,93.1z M565.5,73.6h14V80c1.3-2.8,2.7-4.7,4.2-5.7c1.4-1,3.2-1.6,5.3-1.6c2.2,0,4.6,0.7,7.2,2.1l-4.6,10.6
	c-1.8-0.7-3.2-1.1-4.2-1.1c-2,0-3.5,0.8-4.5,2.4c-1.5,2.3-2.3,6.5-2.3,12.7v13h-15V73.6z M604.7,73.6h15.7l8,25.9l7.5-25.9h14.7
	l-15.4,41.6c-1.8,4.7-3.6,7.9-5.4,9.6c-2.6,2.3-6.5,3.5-11.8,3.5c-2.1,0-5.5-0.3-10-0.9l-1.2-10.4c2.1,0.7,4.5,1,7.2,1
	c1.8,0,3.2-0.4,4.3-1.2c1.1-0.8,2-2.2,2.8-4.3L604.7,73.6z"/>
</svg>
